<?xml version="1.0" ?><!DOCTYPE svg  PUBLIC '-//W3C//DTD SVG 1.1//EN'  'http://www.w3.org/Graphics/SVG/1.1/DTD/svg11.dtd'><svg enable-background="new 0 0 512 512" id="Layer_1" version="1.1" viewBox="0 0 512 512" xml:space="preserve" xmlns="http://www.w3.org/2000/svg" xmlns:xlink="http://www.w3.org/1999/xlink"><g><path d="   M281.8,452.6H230c-34.1,0-61.8-27.6-61.8-61.8l-13.7-50.8c0-56,45.4-101.4,101.4-101.4h0c56,0,101.4,45.4,101.4,101.4l-13.7,50.8   C343.5,425,315.9,452.6,281.8,452.6z" fill="#FFFFFF" stroke="#425FC6" stroke-linecap="round" stroke-linejoin="round" stroke-miterlimit="10" stroke-width="6.5619"/><g><polygon fill="#FFFFFF" points="    187.3,358.7 206.5,358.7 206.5,329.8 191.6,329.8   " stroke="#425FC6" stroke-linecap="round" stroke-linejoin="round" stroke-miterlimit="10" stroke-width="6.5619"/><polygon fill="#FFFFFF" points="    207.1,358.7 226.2,358.7 226.2,329.8 211.4,329.8   " stroke="#425FC6" stroke-linecap="round" stroke-linejoin="round" stroke-miterlimit="10" stroke-width="6.5619"/><polygon fill="#FFFFFF" points="    226.9,358.7 246,358.7 246,329.8 231.2,329.8   " stroke="#425FC6" stroke-linecap="round" stroke-linejoin="round" stroke-miterlimit="10" stroke-width="6.5619"/><polygon fill="#FFFFFF" points="    246.6,358.7 265.8,358.7 265.8,329.8 251,329.8   " stroke="#425FC6" stroke-linecap="round" stroke-linejoin="round" stroke-miterlimit="10" stroke-width="6.5619"/><polygon fill="#FFFFFF" points="    266.4,358.7 285.6,358.7 285.6,329.8 270.7,329.8   " stroke="#425FC6" stroke-linecap="round" stroke-linejoin="round" stroke-miterlimit="10" stroke-width="6.5619"/><polygon fill="#FFFFFF" points="    286.2,358.7 305.3,358.7 305.3,329.8 290.5,329.8   " stroke="#425FC6" stroke-linecap="round" stroke-linejoin="round" stroke-miterlimit="10" stroke-width="6.5619"/><polygon fill="#FFFFFF" points="    306,358.7 325.1,358.7 325.1,329.8 310.3,329.8   " stroke="#425FC6" stroke-linecap="round" stroke-linejoin="round" stroke-miterlimit="10" stroke-width="6.5619"/></g><path d="   M255.9,58.9c-30.2,0-58.3,9.2-81.6,24.9c-48,32.4-69.9,92.1-58.8,149l14.3,73.4c0,23.8,9.4,45.4,24.7,61.4   c16,16.7,30.3,10.2,30.3-12.9v-6.5c0-15.2,11.3-22.4,25.7-17.4c44.4,15.4,117.7-19,117.7,18v5.8c0,22.8,14,29.1,29.7,12.5   c14.9-15.9,24.1-37.2,24.1-60.8l14.3-73.4c11.1-56.9-10.8-116.6-58.8-149C314.2,68.1,286.1,58.9,255.9,58.9z" fill="#FFFFFF" stroke="#425FC6" stroke-linecap="round" stroke-linejoin="round" stroke-miterlimit="10" stroke-width="6.5619"/><path d="   M353,229.6c-4.5,23.8-27.6,19.7-38.5,17.6c-8.9-1.7-26.7-5.2-22.3-29.1s5.7-43.6,38.5-37.4C364.8,187.2,357.5,205.8,353,229.6z" fill="#FFFFFF" stroke="#425FC6" stroke-linecap="round" stroke-linejoin="round" stroke-miterlimit="10" stroke-width="6.5619"/><path d="   M166.9,229.6c4.5,23.8,27.6,19.7,38.5,17.6c8.9-1.7,26.7-5.2,22.3-29.1s-5.7-43.6-38.5-37.4C155.2,187.2,162.4,205.8,166.9,229.6z" fill="#FFFFFF" stroke="#425FC6" stroke-linecap="round" stroke-linejoin="round" stroke-miterlimit="10" stroke-width="6.5619"/><path d="   M241.1,283.4c0.1,14.4,11.8,25.9,18.4,25.9c5.4,0,18.2-11.7,18.2-26.1s1.3-6.2-18.4-6.1C238.8,277.2,241,269.1,241.1,283.4z" fill="#FFFFFF" stroke="#425FC6" stroke-linecap="round" stroke-linejoin="round" stroke-miterlimit="10" stroke-width="6.5619"/><g><polygon fill="#FFFFFF" points="    187.3,359.5 206.5,359.5 206.5,388.3 191.6,388.3   " stroke="#425FC6" stroke-linecap="round" stroke-linejoin="round" stroke-miterlimit="10" stroke-width="6.5619"/><polygon fill="#FFFFFF" points="    207.1,359.5 226.2,359.5 226.2,388.3 211.4,388.3   " stroke="#425FC6" stroke-linecap="round" stroke-linejoin="round" stroke-miterlimit="10" stroke-width="6.5619"/><polygon fill="#FFFFFF" points="    226.9,359.5 246,359.5 246,388.3 231.2,388.3   " stroke="#425FC6" stroke-linecap="round" stroke-linejoin="round" stroke-miterlimit="10" stroke-width="6.5619"/><polygon fill="#FFFFFF" points="    246.6,359.5 265.8,359.5 265.8,388.3 251,388.3   " stroke="#425FC6" stroke-linecap="round" stroke-linejoin="round" stroke-miterlimit="10" stroke-width="6.5619"/><polygon fill="#FFFFFF" points="    266.4,359.5 285.6,359.5 285.6,388.3 270.7,388.3   " stroke="#425FC6" stroke-linecap="round" stroke-linejoin="round" stroke-miterlimit="10" stroke-width="6.5619"/><polygon fill="#FFFFFF" points="    286.2,359.5 305.3,359.5 305.3,388.3 290.5,388.3   " stroke="#425FC6" stroke-linecap="round" stroke-linejoin="round" stroke-miterlimit="10" stroke-width="6.5619"/><polygon fill="#FFFFFF" points="    325.1,359.5 306,359.5 306,388.3 320.8,388.3   " stroke="#425FC6" stroke-linecap="round" stroke-linejoin="round" stroke-miterlimit="10" stroke-width="6.5619"/></g><path d="   M184.2,100c-42.2,28.5-61.5,81-51.7,131l12.6,64.6" fill="none" stroke="#425FC6" stroke-dasharray="124.6766,0,0,6.5619,0,19.6858" stroke-linecap="round" stroke-linejoin="round" stroke-miterlimit="10" stroke-width="6.5619"/><path d="   M364.8,162.5l-22.4-37.1l15.4,0.6l-20.3-42.2c-17.6-11.6-37.2-18-58.2-23.1l56.1,56.9h-19.8L364.8,162.5z" fill="#F95E63" stroke="#425FC6" stroke-linecap="round" stroke-linejoin="round" stroke-miterlimit="10" stroke-width="6.5619"/></g></svg>